<svg width="213" height="37" viewBox="0 0 213 37" fill="none" xmlns="http://www.w3.org/2000/svg">
<path d="M23.4453 28.4677V8.3779H27.2338V28.4677H23.4453Z" fill="white"/>
<path d="M33.5986 28.4677V8.3779H49.3371V11.9283H37.3871V16.2363H47.6485V19.7867H37.3871V24.9607H49.3371V28.511H33.5986V28.4677Z" fill="white"/>
<path d="M17.8817 11.95C17.5137 11.0407 16.9508 10.2614 16.1931 9.65522C15.4354 9.04907 14.4396 8.65939 13.2489 8.46455C12.9891 8.42126 12.686 8.37796 12.3613 8.37796C12.0366 8.37796 11.7768 8.37796 11.582 8.37796H0V28.4678H3.7885V21.6485H11.5603C11.7552 21.6485 12.0149 21.6485 12.3397 21.6269C12.6644 21.6269 12.9675 21.5836 13.2273 21.5403C14.4179 21.3454 15.3921 20.9558 16.1715 20.3496C16.9292 19.7434 17.5137 18.9857 17.8817 18.0765C18.2497 17.1673 18.4229 16.1281 18.4229 15.0024C18.4229 13.8767 18.2497 12.8592 17.8817 11.9283V11.95ZM14.4396 16.1714C14.3313 16.5828 14.1365 16.9508 13.8551 17.2755C13.5736 17.6002 13.184 17.8384 12.6644 17.9899C12.4696 18.0549 12.2531 18.0765 12.0149 18.0982C11.7768 18.0982 11.5603 18.1198 11.3655 18.1198H3.7885V11.9283H11.3871C11.582 11.9283 11.7985 11.9283 12.0366 11.95C12.2747 11.95 12.4912 12.0149 12.686 12.0582C13.2056 12.2098 13.5953 12.4262 13.8767 12.7726C14.1581 13.119 14.353 13.4654 14.4612 13.8767C14.5695 14.288 14.6128 14.6777 14.6128 15.0241C14.6128 15.3704 14.5695 15.7601 14.4612 16.1714H14.4396Z" fill="white"/>
<path d="M66.2664 8.3779C66.4612 8.3779 66.721 8.3779 67.0457 8.3779C67.3705 8.3779 67.6735 8.4212 67.9333 8.46449C69.124 8.65933 70.1198 9.049 70.8775 9.65516C71.6352 10.2613 72.2197 11.019 72.5661 11.9283C72.9125 12.8375 73.1073 13.8766 73.1073 15.0024C73.1073 16.6909 72.696 18.1197 71.8517 19.3321C71.0074 20.5444 69.7085 21.2588 67.9117 21.5402L66.2447 21.6485H58.4945V28.4677H54.7061V8.3779H66.2664ZM66.0932 18.1197C66.288 18.1197 66.5045 18.1197 66.7426 18.0981C66.9808 18.0981 67.1973 18.0332 67.3921 17.9899C67.9117 17.86 68.3013 17.6218 68.5828 17.2755C68.8642 16.9507 69.059 16.5827 69.1673 16.1714C69.2755 15.7601 69.3188 15.392 69.3188 15.024C69.3188 14.656 69.2755 14.288 69.1673 13.8766C69.059 13.4653 68.8642 13.0973 68.5828 12.7726C68.3013 12.4478 67.9117 12.2097 67.3921 12.0582C67.1973 11.9932 66.9808 11.9716 66.7426 11.9499C66.5045 11.9499 66.288 11.9283 66.0932 11.9283H58.4945V18.1197H66.0932ZM69.1023 28.4677L65.1407 20.2846L69.059 19.5269L73.4104 28.4677H69.1023Z" fill="white"/>
<path d="M121.016 28.4678V8.37796H140.911V28.4678H137.122V11.9283H124.826V28.4895H121.037L121.016 28.4678Z" fill="white"/>
<path d="M160.979 28.4678V14.7426L150.588 28.4678H146.734V8.37796H150.588V22.1031L160.979 8.37796H164.833V28.4678H160.979Z" fill="white"/>
<path d="M188.429 11.95C188.061 11.0407 187.498 10.2614 186.741 9.65522C185.983 9.04907 184.987 8.65939 183.797 8.46455C183.537 8.42126 183.234 8.37796 182.909 8.37796C182.584 8.37796 182.324 8.37796 182.13 8.37796H170.569V28.4678H174.358V21.6485H182.13C182.324 21.6485 182.584 21.6485 182.909 21.6269C183.234 21.6269 183.537 21.5836 183.797 21.5403C184.987 21.3454 185.961 20.9558 186.741 20.3496C187.498 19.7434 188.083 18.9857 188.451 18.0765C188.819 17.1673 188.992 16.1281 188.992 15.0024C188.992 13.8767 188.819 12.8592 188.451 11.9283L188.429 11.95ZM184.987 16.1714C184.879 16.5828 184.684 16.9508 184.403 17.2755C184.121 17.6002 183.732 17.8384 183.212 17.9899C183.017 18.0549 182.801 18.0765 182.563 18.0982C182.324 18.0982 182.108 18.1198 181.913 18.1198H174.315V11.9283H181.913C182.108 11.9283 182.324 11.9283 182.563 11.95C182.801 11.95 183.017 12.0149 183.212 12.0582C183.732 12.2098 184.121 12.4262 184.403 12.7726C184.684 13.119 184.879 13.4654 184.987 13.8767C185.095 14.288 185.139 14.6777 185.139 15.0241C185.139 15.3704 185.095 15.7601 184.987 16.1714Z" fill="white"/>
<path d="M213 22.5361C212.286 24.4845 211.073 26.0432 209.363 27.1905C207.631 28.3379 205.51 28.9008 202.977 28.9008C200.769 28.9008 198.864 28.4678 197.262 27.5802C195.66 26.6926 194.426 25.4803 193.56 23.9C192.694 22.3196 192.261 20.5011 192.261 18.4229C192.261 16.3446 192.694 14.5045 193.56 12.9458C194.426 11.3654 195.66 10.1531 197.262 9.26554C198.864 8.37795 200.769 7.94498 202.977 7.94498C205.51 7.94498 207.653 8.50784 209.363 9.65521C211.095 10.8026 212.307 12.3396 213 14.3096L208.8 15.3704C208.367 14.1581 207.675 13.2056 206.657 12.5345C205.661 11.8634 204.362 11.517 202.782 11.517C201.331 11.517 200.119 11.7984 199.167 12.3613C198.192 12.9241 197.478 13.7251 196.98 14.7643C196.504 15.8034 196.244 17.0157 196.244 18.4012C196.244 19.7867 196.482 21.0207 196.98 22.0382C197.456 23.0773 198.192 23.8783 199.167 24.4412C200.141 25.004 201.331 25.2855 202.782 25.2855C204.362 25.2855 205.661 24.9391 206.657 24.268C207.653 23.5969 208.367 22.6443 208.8 21.432L213 22.4928V22.5361Z" fill="white"/>
<path d="M109.65 5.86682L109.217 8.37805H95.3182L92.1575 20.1116L89.7979 19.2456L93.3699 5.86682H109.65Z" fill="white"/>
<path d="M110.689 0L110.234 2.51123H90.7937L86.6156 18.0982L84.2559 17.2322L88.867 0H110.689Z" fill="white"/>
<path d="M104.671 23.8567C104.671 27.7751 101.099 30.9791 96.7263 30.9791C92.3533 30.9791 88.7812 27.7967 88.7812 23.8567H91.2925C91.2925 26.3896 93.7388 28.4678 96.7263 28.4678C99.7138 28.4678 102.16 26.4112 102.16 23.8567C102.16 21.3022 99.7138 19.2455 96.7263 19.2455C95.3624 19.2455 94.0635 19.7002 93.0893 20.4362L90.4482 19.4837C90.9028 18.9641 91.4224 18.5095 92.0069 18.1198C93.3707 17.2106 95.016 16.7343 96.7046 16.7343C101.099 16.7343 104.65 19.9167 104.65 23.8567H104.671Z" fill="white"/>
<path d="M110.538 23.8568C110.538 31.0224 104.346 36.8459 96.7258 36.8459C89.1055 36.8459 82.9141 31.0224 82.9141 23.8568H85.4253C85.4253 29.6369 90.4911 34.3347 96.7258 34.3347C102.961 34.3347 108.026 29.6369 108.026 23.8568C108.026 18.0766 102.961 13.3789 96.7258 13.3789C94.2146 13.3789 91.8116 14.1366 89.8416 15.5437C88.7808 16.3014 87.8716 17.2323 87.1788 18.2714L84.7542 17.3839C85.6634 15.8901 86.919 14.5479 88.3911 13.5088C90.8158 11.7769 93.695 10.8676 96.7475 10.8676C104.368 10.8676 110.559 16.6911 110.559 23.8568H110.538Z" fill="white"/>
</svg>
